<svg width="54" height="54" viewBox="0 0 54 54" fill="none" xmlns="http://www.w3.org/2000/svg">
<g clip-path="url(#clip0_1073_115)">
<path d="M40.1402 21.6675L43.3129 21.466C43.3183 21.4656 43.324 21.4652 43.3298 21.4648C45.5908 21.2737 47.6202 20.0869 48.8982 18.2079L51.4064 14.5208C53.5895 11.3109 54.4353 7.43394 53.7873 3.60446C53.66 2.85235 53.276 2.15927 52.7066 1.6536C52.1369 1.14751 51.4043 0.848649 50.6438 0.812323C46.7703 0.626566 43.0315 1.93306 40.113 4.48949L36.7602 7.42651C35.0517 8.92289 34.119 11.0839 34.2005 13.3563C34.2009 13.3617 34.2009 13.3674 34.2014 13.3732L34.3822 16.553C34.4527 17.7926 33.9991 19.0157 33.1401 19.9065L6.94669 46.8677C6.24548 47.6004 5.88334 48.6056 5.92743 49.6982C5.97604 50.9011 6.52687 52.0825 7.40111 52.859C8.19089 53.5603 9.27648 53.9599 10.3617 53.9599C10.4778 53.9599 10.594 53.9554 10.7098 53.9459C11.7978 53.8588 12.7508 53.3783 13.396 52.5882L36.9646 23.3071C37.7461 22.3436 38.9038 21.7459 40.1402 21.6675ZM35.7064 22.2867L12.1398 51.5653C11.7797 52.0061 11.226 52.2778 10.5808 52.3294C9.8133 52.3909 9.0264 52.1349 8.47516 51.6454C7.92392 51.1554 7.5762 50.4033 7.5453 49.6326C7.51894 48.9849 7.72122 48.4016 8.11097 47.9946L34.3023 21.0355C35.4765 19.8182 36.0944 18.1509 35.9989 16.4609L35.818 13.2894C35.7566 11.5107 36.4879 9.81948 37.8256 8.64756L41.1784 5.71053C43.7805 3.4315 47.1151 2.26783 50.5668 2.43212C50.9598 2.45111 51.338 2.6055 51.6326 2.86721C51.9272 3.12851 52.1253 3.48681 52.1912 3.87525C52.7689 7.28947 52.0149 10.7454 50.0687 13.6069L47.5605 17.2943C46.5598 18.7655 44.9716 19.6956 43.2017 19.8479L40.0376 20.0485C38.3517 20.1558 36.7738 20.9707 35.7064 22.2867Z" fill="#212121"/>
<path d="M52.5041 46.6629L34.9414 30.6354C34.611 30.3336 34.0993 30.3576 33.7978 30.6886C33.497 31.0197 33.5209 31.5328 33.8513 31.8346L51.4094 47.8584C51.8272 48.2452 52.0641 48.8152 52.0769 49.4633C52.0921 50.2344 51.7901 51.0059 51.269 51.5281C50.7482 52.0499 49.9794 52.3533 49.2082 52.3376C48.5614 52.3248 47.9924 52.0875 47.6105 51.6734L31.9607 34.4583C31.6595 34.1268 31.1474 34.1033 30.817 34.4046C30.4866 34.7064 30.4627 35.2195 30.7639 35.5505L46.4174 52.7698C47.1054 53.5153 48.0851 53.938 49.1765 53.9595C49.2049 53.9599 49.2329 53.9603 49.2613 53.9603C50.4343 53.9603 51.6072 53.4835 52.4135 52.6753C53.2399 51.8472 53.7191 50.6348 53.6952 49.4315C53.6737 48.338 53.2523 47.3564 52.5041 46.6629Z" fill="black"/>
<path d="M9.76736 21.514C11.1071 22.7507 12.8478 23.4558 14.6688 23.4995C14.6746 23.5 14.6803 23.5 14.6857 23.5L17.8646 23.5099C19.1038 23.5136 20.2949 24.0407 21.1308 24.9534L22.5312 26.4935C22.691 26.6694 22.9098 26.7586 23.1298 26.7586C23.3242 26.7586 23.5195 26.6888 23.6744 26.5472C24.0053 26.2454 24.0292 25.7323 23.728 25.4013L22.3256 23.8591C21.1836 22.6116 19.5595 21.8934 17.8699 21.8876L14.6997 21.8777C13.2911 21.8418 11.9443 21.3014 10.9007 20.3549L1.68827 9.38201C1.59433 9.26973 1.60134 9.10709 1.70475 9.00348C1.77561 8.93206 1.85883 8.92174 1.90209 8.92174C1.94535 8.92174 2.02857 8.93206 2.09984 9.00348L10.4855 17.4059C11.3144 18.2364 12.6632 18.2364 13.4921 17.4055L14.4776 16.4185V16.4181L16.2273 14.6649C16.2273 14.6649 16.2277 14.6649 16.2277 14.6645L16.2282 14.6641L17.2132 13.6771C18.0421 12.8466 18.0421 11.4951 17.2132 10.6646L8.82761 2.26256C8.71885 2.15358 8.71885 1.97566 8.82761 1.86669C8.93102 1.76308 9.09334 1.75606 9.20541 1.85018L20.1569 11.0811C21.102 12.1263 21.6413 13.4761 21.6771 14.887L21.6866 18.0639C21.6924 19.7563 22.4096 21.3836 23.6563 22.5303L25.1568 23.8995C25.4876 24.2013 25.9993 24.1774 26.3004 23.8463C26.6012 23.5148 26.5773 23.0021 26.2469 22.7004L24.7489 21.3332C23.8355 20.4936 23.3098 19.2998 23.3057 18.0585L23.2958 14.8734C23.2958 14.8676 23.2958 14.8618 23.2954 14.8561C23.2517 13.0315 22.5481 11.2875 21.3137 9.94506C21.2907 9.91988 21.266 9.89594 21.2396 9.87364L10.2473 0.608906C9.48762 -0.03175 8.38514 0.0161341 7.68311 0.719534C6.94277 1.46132 6.94277 2.66792 7.68311 3.4093L16.0687 11.8117C16.2665 12.0099 16.2665 12.3322 16.0687 12.5304L15.6555 12.944L6.30954 3.58019C5.99354 3.26317 5.48103 3.26317 5.16504 3.58019C4.84904 3.89681 4.84904 4.41032 5.16504 4.72693L14.511 14.0912L13.9054 14.6975L4.55941 5.33374C4.24342 5.01713 3.7309 5.01713 3.41491 5.33374C3.0985 5.65035 3.0985 6.16387 3.41491 6.48048L12.7605 15.8447L12.3476 16.2587C12.1499 16.4569 11.8281 16.4569 11.6304 16.2587L3.24435 7.85673C2.88592 7.4976 2.40925 7.29946 1.90209 7.29946C1.39493 7.29946 0.918259 7.4976 0.55983 7.85673C-0.142199 8.56013 -0.189577 9.66477 0.449417 10.4264L9.6965 21.4397C9.71833 21.4661 9.74223 21.4909 9.76736 21.514Z" fill="black"/>
</g>
<defs>
<clipPath id="clip0_1073_115">
<rect width="54" height="54" fill="white"/>
</clipPath>
</defs>
</svg>
